<svg xmlns="http://www.w3.org/2000/svg" viewBox="0 0 380 230" width="380" height="230">
  <defs>
    <filter id="glow" x="-50%" y="-50%" width="200%" height="200%">
      <feGaussianBlur stdDeviation="35" result="blur" />
    </filter>
    <linearGradient id="glassGradient" x1="0%" y1="0%" x2="100%" y2="100%">
      <stop offset="0%" stop-color="rgba(255,255,255,0.08)" />
      <stop offset="100%" stop-color="rgba(255,255,255,0.01)" />
    </linearGradient>
    <linearGradient id="borderGradient" x1="0%" y1="0%" x2="100%" y2="100%">
      <stop offset="0%" stop-color="rgba(255,255,255,0.25)" />
      <stop offset="100%" stop-color="rgba(255,255,255,0.04)" />
    </linearGradient>
    <filter id="shadow">
      <feDropShadow dx="0" dy="15" stdDeviation="20" flood-color="#000" flood-opacity="0.4" />
    </filter>
  </defs>

  <circle cx="40" cy="40" r="70" fill="rgba(168, 85, 247, 0.5)" filter="url(#glow)" />
  <circle cx="340" cy="190" r="80" fill="rgba(236, 72, 153, 0.4)" filter="url(#glow)" />

  <rect x="15" y="15" width="350" height="200" rx="20" ry="20" fill="url(#glassGradient)" stroke="url(#borderGradient)" stroke-width="1.5" filter="url(#shadow)" />

  <g transform="translate(34, 38) scale(1.3)">
    <path d="M9.5 2A2.5 2.5 0 0 1 12 4.5v15a2.5 2.5 0 0 1-4.96.44 2.5 2.5 0 0 1-2.96-3.08 3 3 0 0 1-.34-5.58 2.5 2.5 0 0 1 1.32-4.24 2.5 2.5 0 0 1 1.98-3A2.5 2.5 0 0 1 9.5 2ZM14.5 2A2.5 2.5 0 0 0 12 4.5v15a2.5 2.5 0 0 0 4.96.44 2.5 2.5 0 0 0 2.96-3.08 3 3 0 0 0 .34-5.58 2.5 2.5 0 0 0-1.32-4.24 2.5 2.5 0 0 0-1.98-3A2.5 2.5 0 0 0 14.5 2Z" fill="none" stroke="#ffffff" stroke-width="2" stroke-linecap="round" stroke-linejoin="round"/>
  </g>

  <g font-family="-apple-system, BlinkMacSystemFont, 'Segoe UI', Roboto, Helvetica, Arial, sans-serif">
    <text x="75" y="56" font-size="22" font-weight="700" fill="#ffffff" letter-spacing="0.5px">AdaptiFocus</text>
    
    <text x="40" y="94" font-size="14" font-weight="600" fill="#e5e7eb">AI Attention Management</text>
    
    <text x="40" y="128" font-size="13" fill="#9ca3af" font-weight="400">AI-driven productivity platform</text>
    <text x="40" y="148" font-size="13" fill="#9ca3af" font-weight="400">with behavioral analytics.</text>
    
    <rect x="40" y="170" width="65" height="24" rx="6" fill="rgba(255,255,255,0.06)" stroke="rgba(255,255,255,0.15)"/>\n    <text x="72.5" y="186" font-size="11" font-weight="600" fill="#e5e7eb" text-anchor="middle">FastAPI</text>\n    <rect x="115" y="170" width="60" height="24" rx="6" fill="rgba(255,255,255,0.06)" stroke="rgba(255,255,255,0.15)"/>\n    <text x="145.0" y="186" font-size="11" font-weight="600" fill="#e5e7eb" text-anchor="middle">Docker</text>\n    
  </g>
</svg>